<?xml version="1.0" standalone="no"?>
<!DOCTYPE svg PUBLIC "-//W3C//DTD SVG 20010904//EN"
 "http://www.w3.org/TR/2001/REC-SVG-20010904/DTD/svg10.dtd">
<svg version="1.0" xmlns="http://www.w3.org/2000/svg"
 width="348.000000pt" height="348.000000pt" viewBox="0 0 348.000000 348.000000"
 preserveAspectRatio="xMidYMid meet">

<g transform="translate(0.000000,348.000000) scale(0.100000,-0.100000)"
fill="#000000" stroke="none">
<path d="M1342 2971 c-24 -24 -69 -51 -86 -51 -7 0 -17 -7 -20 -16 -5 -13 -13
-10 -51 16 -25 17 -45 27 -45 23 0 -4 14 -17 30 -28 16 -11 30 -23 30 -27 0
-12 -38 -10 -62 3 -26 14 -78 29 -78 23 0 -3 28 -18 61 -33 69 -31 67 -45 -3
-30 -26 6 -60 9 -75 7 -22 -3 -14 -7 35 -18 72 -16 85 -36 17 -25 -26 3 -60 3
-78 -1 -32 -7 -32 -7 -7 -15 14 -4 40 -7 58 -8 55 -2 26 -19 -43 -26 -97 -11
-91 -27 6 -19 60 5 80 4 75 -5 -4 -6 -15 -11 -25 -11 -9 0 -53 -11 -97 -24
-87 -27 -69 -32 44 -12 81 15 83 8 7 -22 -85 -34 -147 -63 -143 -68 3 -2 47 9
98 26 52 16 96 27 98 26 3 -4 -92 -63 -144 -89 -29 -15 -36 -14 -110 9 -58 19
-90 24 -121 19 -34 -5 -43 -3 -43 8 0 8 -8 25 -18 38 l-19 22 -65 -36 c-59
-33 -69 -44 -99 -102 -31 -59 -39 -67 -84 -84 -36 -13 -51 -25 -53 -40 -3 -19
1 -21 40 -21 24 0 55 -7 70 -14 15 -8 30 -11 33 -6 3 5 12 7 20 4 8 -4 12 -11
8 -18 -4 -6 0 -6 9 2 12 9 18 10 23 2 5 -8 11 -8 21 1 11 9 14 8 14 -2 0 -11
2 -11 10 1 9 14 15 6 10 -15 -1 -5 7 -1 18 8 15 14 21 15 25 5 4 -10 6 -10 6
1 1 11 4 11 18 0 11 -10 14 -10 9 -1 -9 16 6 16 23 0 11 -10 13 -10 7 0 -4 7
-2 12 6 13 7 1 25 2 41 3 15 2 27 -2 27 -8 0 -6 4 -5 9 3 5 8 19 15 30 16 11
1 18 -2 14 -7 -3 -5 5 -4 16 4 18 11 23 11 31 -1 6 -11 12 -12 22 -4 15 12 78
23 78 13 0 -3 -13 -19 -30 -35 -16 -16 -30 -33 -30 -39 0 -6 22 11 48 37 58
57 86 63 44 10 -64 -82 -60 -94 7 -24 39 41 73 72 76 70 2 -3 -15 -34 -39 -70
-70 -104 -79 -119 -73 -119 3 0 29 32 58 70 28 39 54 70 56 70 4 0 -20 -43
-71 -130 -18 -31 -18 -33 -2 -20 10 8 32 38 48 68 44 77 46 57 3 -28 -20 -40
-35 -74 -32 -76 2 -2 23 30 46 71 24 42 47 77 51 80 4 3 -10 -36 -32 -86 -21
-50 -37 -94 -34 -96 3 -3 32 48 65 113 33 66 60 116 60 113 1 -3 -17 -54 -40
-113 -22 -60 -38 -110 -36 -112 2 -3 28 54 58 125 30 71 55 128 57 126 2 -2
-12 -51 -32 -109 -20 -59 -36 -112 -36 -119 0 -25 20 20 56 125 19 59 39 110
43 113 5 2 -3 -39 -16 -93 -30 -122 -37 -158 -31 -152 3 3 20 57 38 120 17 63
36 120 42 125 7 7 8 0 4 -20 -13 -72 -27 -187 -23 -191 2 -3 10 24 16 58 26
131 33 158 42 158 6 0 7 -34 4 -82 -6 -93 9 -75 20 25 4 40 11 57 21 57 10 0
14 -13 15 -42 1 -24 5 -54 10 -68 5 -15 7 34 4 125 -2 83 -2 141 1 130 3 -11
17 -69 31 -130 14 -60 28 -105 30 -100 2 6 -8 71 -22 145 -13 74 -23 135 -22
137 2 1 22 -47 46 -108 24 -61 45 -108 48 -106 2 3 -14 58 -36 123 -23 64 -40
119 -38 121 6 5 97 -148 97 -163 0 -8 5 -14 10 -14 6 0 10 12 10 28 0 15 5 34
11 42 7 11 9 -6 5 -61 -8 -95 5 -112 20 -27 l12 63 1 -67 c1 -73 21 -108 21
-37 0 71 14 33 25 -69 l11 -97 23 68 23 68 -31 152 c-37 180 -37 181 -11 207
12 12 25 32 31 47 5 14 12 23 15 20 10 -9 -16 -75 -31 -81 -8 -3 -13 -18 -13
-38 l1 -33 18 43 c20 46 34 56 27 17 -3 -13 -1 -22 3 -19 5 3 10 26 10 52 1
40 3 36 11 -28 5 -41 12 -78 16 -82 10 -10 15 243 6 316 l-6 58 -128 -4 c-70
-3 -132 -8 -138 -12 -6 -3 -13 -2 -17 3 -10 17 -114 11 -133 -8z m106 -185
c-18 -16 -23 -27 -16 -34 11 -11 38 0 66 26 24 22 26 5 3 -26 -24 -34 -66 -40
-81 -11 -15 28 -12 37 18 53 38 21 41 19 10 -8z m208 -48 c-11 -15 -16 -18
-16 -7 0 16 21 42 28 34 2 -2 -3 -14 -12 -27z m-156 -36 c0 -13 -12 -22 -22
-16 -10 6 -1 24 13 24 5 0 9 -4 9 -8z m-37 -20 c10 -10 14 -22 10 -25 -3 -4
-1 -7 5 -7 7 0 12 -7 12 -15 0 -8 6 -15 14 -15 20 0 29 -16 21 -40 -9 -28 -19
-19 -58 55 -34 64 -36 82 -4 47z m104 -84 c-3 -8 -6 -5 -6 6 -1 11 2 17 5 13
3 -3 4 -12 1 -19z m-487 8 c0 -2 -23 -21 -50 -41 -34 -25 -56 -35 -68 -30 -13
5 -1 15 48 40 72 37 70 37 70 31z m475 -77 c-7 -29 -9 -31 -20 -16 -10 14 -10
23 -1 42 15 33 30 15 21 -26z m-490 11 c-27 -28 -55 -40 -55 -22 0 6 64 47 79
51 3 1 -8 -12 -24 -29z m255 -47 c-11 -17 -11 -17 -6 0 3 10 6 24 7 30 0 9 2
9 5 0 3 -7 0 -20 -6 -30z m57 -72 c-16 -7 -19 9 -11 61 l9 53 5 -55 c3 -30 1
-57 -3 -59z m-70 17 c-3 -7 -5 -2 -5 12 0 14 2 19 5 13 2 -7 2 -19 0 -25z"/>
<path d="M1710 2644 c0 -8 5 -12 10 -9 6 4 8 11 5 16 -9 14 -15 11 -15 -7z"/>
<path d="M1976 2386 c-10 -16 -12 -27 -6 -31 6 -4 9 -3 8 2 -1 4 3 18 10 31
17 30 8 28 -12 -2z"/>
<path d="M1941 2323 c-10 -26 -10 -27 4 -9 8 11 15 23 15 28 0 15 -7 8 -19
-19z"/>
<path d="M1903 2274 c-3 -7 -9 -12 -13 -9 -5 3 -11 1 -15 -5 -4 -6 -11 -7 -17
-4 -7 4 -8 2 -4 -5 6 -9 11 -9 21 -1 7 6 16 7 18 2 3 -4 -3 -13 -13 -20 -16
-10 -22 -8 -35 10 -8 13 -15 17 -15 11 0 -7 5 -15 10 -18 6 -4 8 -10 5 -15 -3
-5 16 -6 42 -2 27 4 154 6 283 5 l235 -3 -35 29 c-31 27 -83 44 -94 33 -7 -6
-307 -5 -339 1 -19 4 -30 1 -34 -9z"/>
<path d="M1795 2242 c3 -3 -1 -12 -7 -21 -8 -10 -4 -9 10 3 26 23 26 23 7 23
-8 0 -13 -3 -10 -5z"/>
<path d="M1765 2229 c-4 -6 -5 -12 -2 -15 2 -3 7 2 10 11 7 17 1 20 -8 4z"/>
<path d="M1821 2217 c-1 -11 -6 -15 -13 -11 -7 5 -8 3 -3 -5 10 -16 29 2 22
21 -4 8 -6 7 -6 -5z"/>
<path d="M1630 2098 c-36 -83 -70 -190 -64 -199 3 -5 13 -9 23 -9 13 0 28 22
51 76 18 41 46 95 61 119 l28 44 -31 10 c-44 16 -43 16 -68 -41z"/>
<path d="M2120 2095 c-21 -26 18 -32 43 -6 l21 21 -26 0 c-14 0 -31 -7 -38
-15z"/>
<path d="M2421 2070 c-19 -64 -62 -151 -72 -145 -18 12 -8 -7 13 -25 l22 -18
38 83 c50 112 54 131 30 137 -16 4 -22 -2 -31 -32z"/>
<path d="M1871 2074 c-17 -14 -33 -35 -37 -47 -4 -12 -22 -55 -41 -95 -19 -41
-32 -76 -30 -78 2 -3 121 -3 265 -2 l261 3 -89 75 c-49 41 -97 76 -107 76 -27
2 -69 21 -134 59 l-59 34 -29 -25z"/>
<path d="M2622 1949 c-46 -27 -81 -64 -70 -75 2 -2 27 11 55 29 27 17 58 37
67 42 18 11 23 28 9 32 -4 1 -32 -11 -61 -28z"/>
<path d="M2676 1898 c3 -5 10 -6 15 -3 13 9 11 12 -6 12 -8 0 -12 -4 -9 -9z"/>
<path d="M35 1475 c0 -234 3 -414 6 -401 6 23 25 603 23 716 0 30 -7 67 -15
82 -12 23 -14 -26 -14 -397z"/>
<path d="M79 1867 c5 -5 21 -7 37 -5 27 3 26 4 -8 9 -22 3 -34 1 -29 -4z"/>
<path d="M2595 1871 c-3 -5 -2 -12 3 -15 5 -3 9 1 9 9 0 17 -3 19 -12 6z"/>
<path d="M158 1863 c7 -3 16 -2 19 1 4 3 -2 6 -13 5 -11 0 -14 -3 -6 -6z"/>
<path d="M183 1738 c1 -43 -1 -71 -6 -65 -5 7 -6 -17 -3 -53 3 -41 2 -58 -3
-45 -7 15 -9 7 -9 -30 -1 -121 -4 -168 -11 -157 -4 6 -7 -21 -7 -61 -1 -40
-13 -179 -28 -310 -15 -131 -26 -243 -24 -249 3 -7 9 28 16 78 6 49 31 244 56
434 50 378 52 400 31 480 l-15 55 3 -77z"/>
<path d="M351 1510 c-1 -14 -4 -36 -6 -50 l-6 -25 11 25 c6 13 9 36 7 50 l-4
25 -2 -25z"/>
<path d="M441 1325 c-1 -16 -15 -64 -31 -104 -16 -41 -28 -76 -26 -78 9 -10
67 158 63 184 l-4 28 -2 -30z"/>
<path d="M972 1323 c-18 -48 -109 -286 -131 -340 -11 -29 -18 -53 -16 -53 3 0
12 18 21 40 9 23 21 37 27 33 5 -3 7 -1 4 4 -4 6 2 13 14 16 14 4 18 2 11 -6
-10 -13 -25 -67 -18 -67 2 0 17 32 32 70 l27 70 46 0 c76 0 116 17 159 65 49
56 70 126 48 160 -17 26 -54 35 -146 35 -65 0 -68 -1 -78 -27z m146 -55 c36
-36 -18 -103 -90 -113 -57 -7 -58 -3 -27 74 21 50 23 51 63 51 23 0 47 -5 54
-12z"/>
<path d="M1961 1325 c-16 -15 -36 -42 -43 -60 -8 -23 -19 -35 -30 -35 -11 0
-23 -11 -28 -26 -13 -33 -13 -34 5 -34 19 0 20 3 -15 -86 -17 -42 -29 -78 -28
-80 2 -1 14 17 27 42 29 54 46 41 25 -19 -28 -79 -7 -45 30 48 33 83 41 95 62
95 22 0 44 25 44 49 0 6 -9 11 -20 11 -23 0 -24 4 -9 33 16 29 30 38 51 31 12
-3 22 4 33 25 l16 31 -45 0 c-33 0 -52 -7 -75 -25z"/>
<path d="M2395 1340 c-11 -18 -125 -324 -121 -327 1 -2 11 15 21 38 10 22 28
45 39 51 19 10 20 10 7 -6 -12 -14 -25 -76 -16 -76 3 0 48 112 116 283 l19 47
-30 0 c-16 0 -31 -4 -35 -10z"/>
<path d="M2519 1324 c-5 -15 -12 -31 -15 -35 -3 -5 10 -9 29 -9 30 0 37 4 46
31 6 18 11 34 11 35 0 2 -14 4 -30 4 -24 0 -33 -6 -41 -26z"/>
<path d="M1793 1309 c-17 -11 -36 -34 -42 -51 -10 -29 -12 -30 -54 -24 -35 5
-48 3 -69 -14 -31 -24 -39 -25 -31 -4 4 12 0 15 -23 12 -27 -3 -32 -11 -76
-128 -27 -69 -48 -127 -48 -130 1 -3 11 15 24 40 13 25 27 43 31 42 4 -2 12 2
17 10 8 10 9 10 5 -2 -2 -8 -8 -14 -13 -13 -5 1 -9 -14 -10 -33 0 -30 5 -23
43 55 42 88 64 110 100 99 6 -2 20 8 32 22 21 24 22 24 16 3 -4 -16 -2 -23 8
-23 11 0 6 -21 -20 -91 -19 -50 -32 -93 -30 -96 3 -2 10 12 17 31 7 21 16 33
22 30 7 -4 8 -2 4 4 -4 7 -2 12 4 12 6 0 8 5 4 12 -4 6 -3 8 4 4 11 -6 9 -36
-3 -56 -3 -6 -3 -10 2 -10 4 0 22 35 38 78 26 65 34 77 56 80 33 4 59 62 28
62 -23 0 -24 10 -4 57 8 19 15 37 15 39 0 9 -17 3 -47 -17z"/>
<path d="M1322 1229 c-70 -21 -144 -124 -147 -209 -2 -25 -1 -33 2 -19 2 15
13 35 23 44 17 16 18 16 16 -2 -4 -22 19 -59 42 -68 12 -4 10 0 -5 15 -29 27
-29 49 2 111 30 58 83 92 110 69 36 -30 3 -138 -53 -173 -15 -9 -22 -17 -15
-17 6 0 25 11 41 25 37 31 49 18 21 -21 -11 -16 -4 -11 16 11 48 53 65 86 72
145 5 43 3 51 -20 74 -27 27 -50 30 -105 15z m76 -189 c-8 -12 -16 -16 -22
-10 -6 6 -4 15 4 24 17 22 32 9 18 -14z"/>
<path d="M2124 1230 c-68 -21 -140 -121 -149 -207 -6 -54 0 -48 10 10 3 21 10
35 15 32 5 -3 12 0 16 6 5 8 3 9 -7 4 -12 -8 -12 -6 0 8 19 24 20 22 15 -20
-4 -36 -3 -34 25 24 31 66 74 100 111 88 34 -11 35 -50 3 -115 -16 -33 -28
-60 -26 -60 2 0 16 20 32 45 22 34 30 41 35 29 6 -16 -6 -46 -33 -79 -16 -20
-16 -20 7 -1 32 27 72 118 72 164 0 62 -54 93 -126 72z"/>
<path d="M2695 1233 c-27 -7 -75 -41 -103 -73 -29 -32 -62 -122 -61 -163 1
-27 3 -24 9 14 4 26 15 59 23 75 14 27 15 27 21 6 4 -12 5 -32 2 -44 -4 -13 4
0 17 27 24 51 77 105 102 105 7 0 21 -7 30 -17 19 -19 14 -72 -12 -112 -8 -13
-10 -20 -4 -16 7 3 21 27 33 51 11 25 23 43 25 40 11 -11 9 -43 -4 -68 -7 -16
-11 -28 -8 -28 13 0 45 87 45 121 0 62 -52 99 -115 82z m-98 -135 c-3 -8 -6
-5 -6 6 -1 11 2 17 5 13 3 -3 4 -12 1 -19z"/>
<path d="M2477 1213 c-3 -10 -19 -55 -36 -100 -30 -80 -35 -117 -8 -50 8 17
21 38 30 45 14 12 15 11 11 -12 -2 -14 -9 -38 -15 -53 -6 -16 -6 -23 -1 -18
10 11 82 182 82 196 0 17 -57 10 -63 -8z"/>
<path d="M366 1115 c-9 -26 -7 -32 5 -12 6 10 9 21 6 23 -2 3 -7 -2 -11 -11z"/>
<path d="M222 1060 c-1 -25 -5 -56 -8 -70 -5 -21 -4 -22 6 -7 6 9 9 41 7 70
l-3 52 -2 -45z"/>
<path d="M32 1020 c0 -14 2 -19 5 -12 2 6 2 18 0 25 -3 6 -5 1 -5 -13z"/>
<path d="M31 974 c0 -11 3 -14 6 -6 3 7 2 16 -1 19 -3 4 -6 -2 -5 -13z"/>
<path d="M201 944 c0 -11 3 -14 6 -6 3 7 2 16 -1 19 -3 4 -6 -2 -5 -13z"/>
<path d="M224 774 c-4 -10 -24 -64 -45 -118 -21 -55 -37 -102 -35 -103 2 -2
25 49 50 113 26 64 45 119 42 122 -3 3 -9 -4 -12 -14z"/>
<path d="M23 705 c0 -44 2 -61 4 -37 2 23 2 59 0 80 -2 20 -4 1 -4 -43z"/>
<path d="M105 469 c-4 -6 -5 -12 -2 -15 2 -3 7 2 10 11 7 17 1 20 -8 4z"/>
<path d="M86 425 c-9 -26 -7 -32 5 -12 6 10 9 21 6 23 -2 3 -7 -2 -11 -11z"/>
<path d="M65 369 c-4 -6 -5 -12 -2 -15 2 -3 7 2 10 11 7 17 1 20 -8 4z"/>
<path d="M41 317 c-13 -21 -12 -21 5 -5 10 10 16 20 13 22 -3 3 -11 -5 -18
-17z"/>
</g>
</svg>
